# xmcd
#
# Track frame offsets: 
#        150
#        15719
#        34132
#        51776
#        69893
#        87482
#        100387
#        121458
#        142625
#        162709
#        180647
#
# Disc length: 2678 seconds
#
# Revision: 0
# Processed by: cddbd v1.5.2PL0 Copyright (c) Steve Scherf et al.
# Submitted via: ExactAudioCopy v0.99pb5
#
DISCID=900a740b
DTITLE=Casiokids - Aabenbaringen over aaskammen
DYEAR=2011
DGENRE=Rock and Roll
TTITLE0=Aabenbaringen over aaskammen
TTITLE1=Det haster!
TTITLE2=Dresinen
TTITLE3=Golden Years
TTITLE4=Olympiske leker
TTITLE5=Dr. Tarzan Monsoon
TTITLE6=Selskapets trist avslutning
TTITLE7=Elefantenes hemmelige gravplass
TTITLE8=Kaskaden
TTITLE9=London Zoo
TTITLE10=Aldri ska me ha det gøy
EXTD=
EXTT0=
EXTT1=
EXTT2=
EXTT3=
EXTT4=
EXTT5=
EXTT6=
EXTT7=
EXTT8=
EXTT9=
EXTT10=
PLAYORDER=
